<svg xmlns="http://www.w3.org/2000/svg" version="1.1" xmlns:xlink="http://www.w3.org/1999/xlink" xmlns:svgjs="http://svgjs.dev/svgjs" width="1440" height="560" preserveAspectRatio="none" viewBox="0 0 1440 560"><g mask="url(&quot;#SvgjsMask1112&quot;)" fill="none"><rect width="1440" height="560" x="0" y="0" fill="#0e2a47" style="--darkreader-inline-fill: var(--darkreader-background-0e2a47, #0b2239);" data-darkreader-inline-fill=""></rect><path d="M3.31 222.4L84.72 269.4L84.72 363.4L3.31 410.4L-78.1 363.4L-78.1 269.4zM3.31 504.4L84.72 551.4L84.72 645.4L3.31 692.4L-78.1 645.4L-78.1 551.4zM328.94 222.4L410.35 269.4L410.35 363.4L328.94 410.4L247.54 363.4L247.54 269.4zM410.35 363.4L491.76 410.4L491.76 504.4L410.35 551.4L328.94 504.4L328.94 410.4zM491.76 -59.6L573.17 -12.6L573.17 81.4L491.76 128.4L410.35 81.4L410.35 -12.6zM573.17 81.4L654.58 128.4L654.58 222.4L573.17 269.4L491.76 222.4L491.76 128.4zM654.58 222.4L735.99 269.4L735.99 363.4L654.58 410.4L573.17 363.4L573.17 269.4zM654.58 504.4L735.99 551.4L735.99 645.4L654.58 692.4L573.17 645.4L573.17 551.4zM817.4 -59.6L898.81 -12.6L898.81 81.4L817.4 128.4L735.99 81.4L735.99 -12.6zM898.81 363.4L980.21 410.4L980.21 504.4L898.81 551.4L817.4 504.4L817.4 410.4zM980.21 -59.6L1061.62 -12.6L1061.62 81.4L980.21 128.4L898.81 81.4L898.81 -12.6zM1061.62 81.4L1143.03 128.4L1143.03 222.4L1061.62 269.4L980.21 222.4L980.21 128.4zM980.21 222.4L1061.62 269.4L1061.62 363.4L980.21 410.4L898.81 363.4L898.81 269.4zM1061.62 363.4L1143.03 410.4L1143.03 504.4L1061.62 551.4L980.21 504.4L980.21 410.4zM1224.44 363.4L1305.85 410.4L1305.85 504.4L1224.44 551.4L1143.03 504.4L1143.03 410.4zM1143.03 504.4L1224.44 551.4L1224.44 645.4L1143.03 692.4L1061.62 645.4L1061.62 551.4zM1305.85 -59.6L1387.26 -12.6L1387.26 81.4L1305.85 128.4L1224.44 81.4L1224.44 -12.6zM1387.26 81.4L1468.67 128.4L1468.67 222.4L1387.26 269.4L1305.85 222.4L1305.85 128.4zM1305.85 222.4L1387.26 269.4L1387.26 363.4L1305.85 410.4L1224.44 363.4L1224.44 269.4zM1305.85 504.4L1387.26 551.4L1387.26 645.4L1305.85 692.4L1224.44 645.4L1224.44 551.4z" stroke="#03305d" stroke-width="2" style="--darkreader-inline-stroke: var(--darkreader-text-03305d, #cac5be);" data-darkreader-inline-stroke=""></path><path d="M-6.09 222.4 a9.4 9.4 0 1 0 18.8 0 a9.4 9.4 0 1 0 -18.8 0zM75.32 269.4 a9.4 9.4 0 1 0 18.8 0 a9.4 9.4 0 1 0 -18.8 0zM75.32 363.4 a9.4 9.4 0 1 0 18.8 0 a9.4 9.4 0 1 0 -18.8 0zM-6.09 410.4 a9.4 9.4 0 1 0 18.8 0 a9.4 9.4 0 1 0 -18.8 0zM-87.5 363.4 a9.4 9.4 0 1 0 18.8 0 a9.4 9.4 0 1 0 -18.8 0zM-87.5 269.4 a9.4 9.4 0 1 0 18.8 0 a9.4 9.4 0 1 0 -18.8 0zM-6.09 504.4 a9.4 9.4 0 1 0 18.8 0 a9.4 9.4 0 1 0 -18.8 0zM75.32 551.4 a9.4 9.4 0 1 0 18.8 0 a9.4 9.4 0 1 0 -18.8 0zM75.32 645.4 a9.4 9.4 0 1 0 18.8 0 a9.4 9.4 0 1 0 -18.8 0zM-6.09 692.4 a9.4 9.4 0 1 0 18.8 0 a9.4 9.4 0 1 0 -18.8 0zM-87.5 645.4 a9.4 9.4 0 1 0 18.8 0 a9.4 9.4 0 1 0 -18.8 0zM-87.5 551.4 a9.4 9.4 0 1 0 18.8 0 a9.4 9.4 0 1 0 -18.8 0zM319.54 222.4 a9.4 9.4 0 1 0 18.8 0 a9.4 9.4 0 1 0 -18.8 0zM400.95 269.4 a9.4 9.4 0 1 0 18.8 0 a9.4 9.4 0 1 0 -18.8 0zM400.95 363.4 a9.4 9.4 0 1 0 18.8 0 a9.4 9.4 0 1 0 -18.8 0zM319.54 410.4 a9.4 9.4 0 1 0 18.8 0 a9.4 9.4 0 1 0 -18.8 0zM238.14 363.4 a9.4 9.4 0 1 0 18.8 0 a9.4 9.4 0 1 0 -18.8 0zM238.14 269.4 a9.4 9.4 0 1 0 18.8 0 a9.4 9.4 0 1 0 -18.8 0zM482.36 410.4 a9.4 9.4 0 1 0 18.8 0 a9.4 9.4 0 1 0 -18.8 0zM482.36 504.4 a9.4 9.4 0 1 0 18.8 0 a9.4 9.4 0 1 0 -18.8 0zM400.95 551.4 a9.4 9.4 0 1 0 18.8 0 a9.4 9.4 0 1 0 -18.8 0zM319.54 504.4 a9.4 9.4 0 1 0 18.8 0 a9.4 9.4 0 1 0 -18.8 0zM482.36 -59.6 a9.4 9.4 0 1 0 18.8 0 a9.4 9.4 0 1 0 -18.8 0zM563.77 -12.6 a9.4 9.4 0 1 0 18.8 0 a9.4 9.4 0 1 0 -18.8 0zM563.77 81.4 a9.4 9.4 0 1 0 18.8 0 a9.4 9.4 0 1 0 -18.8 0zM482.36 128.4 a9.4 9.4 0 1 0 18.8 0 a9.4 9.4 0 1 0 -18.8 0zM400.95 81.4 a9.4 9.4 0 1 0 18.8 0 a9.4 9.4 0 1 0 -18.8 0zM400.95 -12.6 a9.4 9.4 0 1 0 18.8 0 a9.4 9.4 0 1 0 -18.8 0zM645.18 128.4 a9.4 9.4 0 1 0 18.8 0 a9.4 9.4 0 1 0 -18.8 0zM645.18 222.4 a9.4 9.4 0 1 0 18.8 0 a9.4 9.4 0 1 0 -18.8 0zM563.77 269.4 a9.4 9.4 0 1 0 18.8 0 a9.4 9.4 0 1 0 -18.8 0zM482.36 222.4 a9.4 9.4 0 1 0 18.8 0 a9.4 9.4 0 1 0 -18.8 0zM726.59 269.4 a9.4 9.4 0 1 0 18.8 0 a9.4 9.4 0 1 0 -18.8 0zM726.59 363.4 a9.4 9.4 0 1 0 18.8 0 a9.4 9.4 0 1 0 -18.8 0zM645.18 410.4 a9.4 9.4 0 1 0 18.8 0 a9.4 9.4 0 1 0 -18.8 0zM563.77 363.4 a9.4 9.4 0 1 0 18.8 0 a9.4 9.4 0 1 0 -18.8 0zM645.18 504.4 a9.4 9.4 0 1 0 18.8 0 a9.4 9.4 0 1 0 -18.8 0zM726.59 551.4 a9.4 9.4 0 1 0 18.8 0 a9.4 9.4 0 1 0 -18.8 0zM726.59 645.4 a9.4 9.4 0 1 0 18.8 0 a9.4 9.4 0 1 0 -18.8 0zM645.18 692.4 a9.4 9.4 0 1 0 18.8 0 a9.4 9.4 0 1 0 -18.8 0zM563.77 645.4 a9.4 9.4 0 1 0 18.8 0 a9.4 9.4 0 1 0 -18.8 0zM563.77 551.4 a9.4 9.4 0 1 0 18.8 0 a9.4 9.4 0 1 0 -18.8 0zM808 -59.6 a9.4 9.4 0 1 0 18.8 0 a9.4 9.4 0 1 0 -18.8 0zM889.41 -12.6 a9.4 9.4 0 1 0 18.8 0 a9.4 9.4 0 1 0 -18.8 0zM889.41 81.4 a9.4 9.4 0 1 0 18.8 0 a9.4 9.4 0 1 0 -18.8 0zM808 128.4 a9.4 9.4 0 1 0 18.8 0 a9.4 9.4 0 1 0 -18.8 0zM726.59 81.4 a9.4 9.4 0 1 0 18.8 0 a9.4 9.4 0 1 0 -18.8 0zM726.59 -12.6 a9.4 9.4 0 1 0 18.8 0 a9.4 9.4 0 1 0 -18.8 0zM889.41 363.4 a9.4 9.4 0 1 0 18.8 0 a9.4 9.4 0 1 0 -18.8 0zM970.81 410.4 a9.4 9.4 0 1 0 18.8 0 a9.4 9.4 0 1 0 -18.8 0zM970.81 504.4 a9.4 9.4 0 1 0 18.8 0 a9.4 9.4 0 1 0 -18.8 0zM889.41 551.4 a9.4 9.4 0 1 0 18.8 0 a9.4 9.4 0 1 0 -18.8 0zM808 504.4 a9.4 9.4 0 1 0 18.8 0 a9.4 9.4 0 1 0 -18.8 0zM808 410.4 a9.4 9.4 0 1 0 18.8 0 a9.4 9.4 0 1 0 -18.8 0zM970.81 -59.6 a9.4 9.4 0 1 0 18.8 0 a9.4 9.4 0 1 0 -18.8 0zM1052.22 -12.6 a9.4 9.4 0 1 0 18.8 0 a9.4 9.4 0 1 0 -18.8 0zM1052.22 81.4 a9.4 9.4 0 1 0 18.8 0 a9.4 9.4 0 1 0 -18.8 0zM970.81 128.4 a9.4 9.4 0 1 0 18.8 0 a9.4 9.4 0 1 0 -18.8 0zM1133.63 128.4 a9.4 9.4 0 1 0 18.8 0 a9.4 9.4 0 1 0 -18.8 0zM1133.63 222.4 a9.4 9.4 0 1 0 18.8 0 a9.4 9.4 0 1 0 -18.8 0zM1052.22 269.4 a9.4 9.4 0 1 0 18.8 0 a9.4 9.4 0 1 0 -18.8 0zM970.81 222.4 a9.4 9.4 0 1 0 18.8 0 a9.4 9.4 0 1 0 -18.8 0zM1052.22 363.4 a9.4 9.4 0 1 0 18.8 0 a9.4 9.4 0 1 0 -18.8 0zM889.41 269.4 a9.4 9.4 0 1 0 18.8 0 a9.4 9.4 0 1 0 -18.8 0zM1133.63 410.4 a9.4 9.4 0 1 0 18.8 0 a9.4 9.4 0 1 0 -18.8 0zM1133.63 504.4 a9.4 9.4 0 1 0 18.8 0 a9.4 9.4 0 1 0 -18.8 0zM1052.22 551.4 a9.4 9.4 0 1 0 18.8 0 a9.4 9.4 0 1 0 -18.8 0zM1215.04 363.4 a9.4 9.4 0 1 0 18.8 0 a9.4 9.4 0 1 0 -18.8 0zM1296.45 410.4 a9.4 9.4 0 1 0 18.8 0 a9.4 9.4 0 1 0 -18.8 0zM1296.45 504.4 a9.4 9.4 0 1 0 18.8 0 a9.4 9.4 0 1 0 -18.8 0zM1215.04 551.4 a9.4 9.4 0 1 0 18.8 0 a9.4 9.4 0 1 0 -18.8 0zM1215.04 645.4 a9.4 9.4 0 1 0 18.8 0 a9.4 9.4 0 1 0 -18.8 0zM1133.63 692.4 a9.4 9.4 0 1 0 18.8 0 a9.4 9.4 0 1 0 -18.8 0zM1052.22 645.4 a9.4 9.4 0 1 0 18.8 0 a9.4 9.4 0 1 0 -18.8 0zM1296.45 -59.6 a9.4 9.4 0 1 0 18.8 0 a9.4 9.4 0 1 0 -18.8 0zM1377.86 -12.6 a9.4 9.4 0 1 0 18.8 0 a9.4 9.4 0 1 0 -18.8 0zM1377.86 81.4 a9.4 9.4 0 1 0 18.8 0 a9.4 9.4 0 1 0 -18.8 0zM1296.45 128.4 a9.4 9.4 0 1 0 18.8 0 a9.4 9.4 0 1 0 -18.8 0zM1215.04 81.4 a9.4 9.4 0 1 0 18.8 0 a9.4 9.4 0 1 0 -18.8 0zM1215.04 -12.6 a9.4 9.4 0 1 0 18.8 0 a9.4 9.4 0 1 0 -18.8 0zM1459.27 128.4 a9.4 9.4 0 1 0 18.8 0 a9.4 9.4 0 1 0 -18.8 0zM1459.27 222.4 a9.4 9.4 0 1 0 18.8 0 a9.4 9.4 0 1 0 -18.8 0zM1377.86 269.4 a9.4 9.4 0 1 0 18.8 0 a9.4 9.4 0 1 0 -18.8 0zM1296.45 222.4 a9.4 9.4 0 1 0 18.8 0 a9.4 9.4 0 1 0 -18.8 0zM1377.86 363.4 a9.4 9.4 0 1 0 18.8 0 a9.4 9.4 0 1 0 -18.8 0zM1215.04 269.4 a9.4 9.4 0 1 0 18.8 0 a9.4 9.4 0 1 0 -18.8 0zM1377.86 551.4 a9.4 9.4 0 1 0 18.8 0 a9.4 9.4 0 1 0 -18.8 0zM1377.86 645.4 a9.4 9.4 0 1 0 18.8 0 a9.4 9.4 0 1 0 -18.8 0zM1296.45 692.4 a9.4 9.4 0 1 0 18.8 0 a9.4 9.4 0 1 0 -18.8 0z" fill="#03305d" style="--darkreader-inline-fill: var(--darkreader-background-03305d, #02264a);" data-darkreader-inline-fill=""></path><path d="M32.65 241.85L73.35 265.35L73.35 312.35L32.65 335.85L-8.05 312.35L-8.05 265.35zM73.35 453.35L114.06 476.85L114.06 523.85L73.35 547.35L32.65 523.85L32.65 476.85zM114.06 -40.15L154.76 -16.65L154.76 30.35L114.06 53.85L73.35 30.35L73.35 -16.65zM114.06 100.85L154.76 124.35L154.76 171.35L114.06 194.85L73.35 171.35L73.35 124.35zM154.76 312.35L195.47 335.85L195.47 382.85L154.76 406.35L114.06 382.85L114.06 335.85zM114.06 382.85L154.76 406.35L154.76 453.35L114.06 476.85L73.35 453.35L73.35 406.35zM154.76 453.35L195.47 476.85L195.47 523.85L154.76 547.35L114.06 523.85L114.06 476.85zM236.17 30.35L276.88 53.85L276.88 100.85L236.17 124.35L195.47 100.85L195.47 53.85zM195.47 241.85L236.17 265.35L236.17 312.35L195.47 335.85L154.76 312.35L154.76 265.35zM195.47 382.85L236.17 406.35L236.17 453.35L195.47 476.85L154.76 453.35L154.76 406.35zM195.47 523.85L236.17 547.35L236.17 594.35L195.47 617.85L154.76 594.35L154.76 547.35zM276.88 -40.15L317.58 -16.65L317.58 30.35L276.88 53.85L236.17 30.35L236.17 -16.65zM317.58 312.35L358.28 335.85L358.28 382.85L317.58 406.35L276.88 382.85L276.88 335.85zM276.88 523.85L317.58 547.35L317.58 594.35L276.88 617.85L236.17 594.35L236.17 547.35zM358.28 100.85L398.99 124.35L398.99 171.35L358.28 194.85L317.58 171.35L317.58 124.35zM358.28 241.85L398.99 265.35L398.99 312.35L358.28 335.85L317.58 312.35L317.58 265.35zM398.99 453.35L439.69 476.85L439.69 523.85L398.99 547.35L358.28 523.85L358.28 476.85zM480.4 30.35L521.1 53.85L521.1 100.85L480.4 124.35L439.69 100.85L439.69 53.85zM439.69 100.85L480.4 124.35L480.4 171.35L439.69 194.85L398.99 171.35L398.99 124.35zM480.4 171.35L521.1 194.85L521.1 241.85L480.4 265.35L439.69 241.85L439.69 194.85zM439.69 241.85L480.4 265.35L480.4 312.35L439.69 335.85L398.99 312.35L398.99 265.35zM521.1 241.85L561.81 265.35L561.81 312.35L521.1 335.85L480.4 312.35L480.4 265.35zM521.1 382.85L561.81 406.35L561.81 453.35L521.1 476.85L480.4 453.35L480.4 406.35zM521.1 523.85L561.81 547.35L561.81 594.35L521.1 617.85L480.4 594.35L480.4 547.35zM643.22 30.35L683.92 53.85L683.92 100.85L643.22 124.35L602.51 100.85L602.51 53.85zM643.22 312.35L683.92 335.85L683.92 382.85L643.22 406.35L602.51 382.85L602.51 335.85zM683.92 -40.15L724.62 -16.65L724.62 30.35L683.92 53.85L643.22 30.35L643.22 -16.65zM683.92 100.85L724.62 124.35L724.62 171.35L683.92 194.85L643.22 171.35L643.22 124.35zM724.62 312.35L765.33 335.85L765.33 382.85L724.62 406.35L683.92 382.85L683.92 335.85zM683.92 523.85L724.62 547.35L724.62 594.35L683.92 617.85L643.22 594.35L643.22 547.35zM765.33 -40.15L806.03 -16.65L806.03 30.35L765.33 53.85L724.62 30.35L724.62 -16.65zM887.44 30.35L928.15 53.85L928.15 100.85L887.44 124.35L846.74 100.85L846.74 53.85zM846.74 100.85L887.44 124.35L887.44 171.35L846.74 194.85L806.03 171.35L806.03 124.35zM887.44 312.35L928.15 335.85L928.15 382.85L887.44 406.35L846.74 382.85L846.74 335.85zM846.74 523.85L887.44 547.35L887.44 594.35L846.74 617.85L806.03 594.35L806.03 547.35zM928.15 -40.15L968.85 -16.65L968.85 30.35L928.15 53.85L887.44 30.35L887.44 -16.65zM928.15 100.85L968.85 124.35L968.85 171.35L928.15 194.85L887.44 171.35L887.44 124.35zM968.85 312.35L1009.55 335.85L1009.55 382.85L968.85 406.35L928.15 382.85L928.15 335.85zM928.15 523.85L968.85 547.35L968.85 594.35L928.15 617.85L887.44 594.35L887.44 547.35zM1009.55 100.85L1050.26 124.35L1050.26 171.35L1009.55 194.85L968.85 171.35L968.85 124.35zM1050.26 171.35L1090.96 194.85L1090.96 241.85L1050.26 265.35L1009.55 241.85L1009.55 194.85zM1050.26 312.35L1090.96 335.85L1090.96 382.85L1050.26 406.35L1009.55 382.85L1009.55 335.85zM1050.26 453.35L1090.96 476.85L1090.96 523.85L1050.26 547.35L1009.55 523.85L1009.55 476.85zM1009.55 523.85L1050.26 547.35L1050.26 594.35L1009.55 617.85L968.85 594.35L968.85 547.35zM1131.67 171.35L1172.37 194.85L1172.37 241.85L1131.67 265.35L1090.96 241.85L1090.96 194.85zM1090.96 523.85L1131.67 547.35L1131.67 594.35L1090.96 617.85L1050.26 594.35L1050.26 547.35zM1172.37 523.85L1213.08 547.35L1213.08 594.35L1172.37 617.85L1131.67 594.35L1131.67 547.35zM1294.48 30.35L1335.19 53.85L1335.19 100.85L1294.48 124.35L1253.78 100.85L1253.78 53.85zM1294.48 171.35L1335.19 194.85L1335.19 241.85L1294.48 265.35L1253.78 241.85L1253.78 194.85zM1335.19 -40.15L1375.89 -16.65L1375.89 30.35L1335.19 53.85L1294.48 30.35L1294.48 -16.65zM1375.89 30.35L1416.6 53.85L1416.6 100.85L1375.89 124.35L1335.19 100.85L1335.19 53.85zM1375.89 312.35L1416.6 335.85L1416.6 382.85L1375.89 406.35L1335.19 382.85L1335.19 335.85zM1335.19 382.85L1375.89 406.35L1375.89 453.35L1335.19 476.85L1294.48 453.35L1294.48 406.35zM1375.89 453.35L1416.6 476.85L1416.6 523.85L1375.89 547.35L1335.19 523.85L1335.19 476.85zM1416.6 241.85L1457.3 265.35L1457.3 312.35L1416.6 335.85L1375.89 312.35L1375.89 265.35zM1457.3 312.35L1498.01 335.85L1498.01 382.85L1457.3 406.35L1416.6 382.85L1416.6 335.85zM1416.6 523.85L1457.3 547.35L1457.3 594.35L1416.6 617.85L1375.89 594.35L1375.89 547.35z" stroke="rgba(6, 80, 156, 0.93)" stroke-width="2" style="--darkreader-inline-stroke: var(--darkreader-text-06509ced, rgba(112, 188, 250, 0.93));" data-darkreader-inline-stroke=""></path></g><defs><mask id="SvgjsMask1112"><rect width="1440" height="560" fill="#ffffff" style="--darkreader-inline-fill: var(--darkreader-text-ffffff, #e8e6e3);" data-darkreader-inline-fill=""></rect></mask></defs></svg>