<svg xmlns="http://www.w3.org/2000/svg" version="1.1" xmlns:xlink="http://www.w3.org/1999/xlink" xmlns:svgjs="http://svgjs.dev/svgjs" width="1440" height="250" preserveAspectRatio="none" viewBox="0 0 1440 250"><g mask="url(&quot;#SvgjsMask1000&quot;)" fill="none"><rect width="1440" height="250" x="0" y="0" fill="#0e2a47" style="--darkreader-inline-fill: var(--darkreader-background-0e2a47, #0b2239);" data-darkreader-inline-fill=""></rect><path d="M12 250L262 0L469 0L219 250z" fill="url(&quot;#SvgjsLinearGradient1001&quot;)"></path><path d="M269.6 250L519.6 0L605.1 0L355.1 250z" fill="url(&quot;#SvgjsLinearGradient1001&quot;)"></path><path d="M481.20000000000005 250L731.2 0L912.7 0L662.7 250z" fill="url(&quot;#SvgjsLinearGradient1001&quot;)"></path><path d="M743.8000000000001 250L993.8000000000001 0L1181.3000000000002 0L931.3000000000001 250z" fill="url(&quot;#SvgjsLinearGradient1001&quot;)"></path><path d="M1437 250L1187 0L1074.5 0L1324.5 250z" fill="url(&quot;#SvgjsLinearGradient1002&quot;)"></path><path d="M1198.4 250L948.4000000000001 0L856.9000000000001 0L1106.9 250z" fill="url(&quot;#SvgjsLinearGradient1002&quot;)"></path><path d="M930.8 250L680.8 0L341.79999999999995 0L591.8 250z" fill="url(&quot;#SvgjsLinearGradient1002&quot;)"></path><path d="M723.1999999999999 250L473.19999999999993 0L156.69999999999993 0L406.69999999999993 250z" fill="url(&quot;#SvgjsLinearGradient1002&quot;)"></path><path d="M1245.1001857748022 250L1440 55.100185774802185L1440 250z" fill="url(&quot;#SvgjsLinearGradient1001&quot;)"></path><path d="M0 250L194.89981422519782 250L 0 55.100185774802185z" fill="url(&quot;#SvgjsLinearGradient1002&quot;)"></path></g><defs><mask id="SvgjsMask1000"><rect width="1440" height="250" fill="#ffffff" style="--darkreader-inline-fill: var(--darkreader-text-ffffff, #e8e6e3);" data-darkreader-inline-fill=""></rect></mask><linearGradient x1="0%" y1="100%" x2="100%" y2="0%" id="SvgjsLinearGradient1001"><stop stop-color="rgba(15, 70, 185, 0.2)" offset="0" style="--darkreader-inline-stopcolor: rgba(12, 56, 148, 0.2);" data-darkreader-inline-stopcolor=""></stop><stop stop-opacity="0" stop-color="rgba(15, 70, 185, 0.2)" offset="0.66" style="--darkreader-inline-stopcolor: var(--darkreader-background-0f46b933, rgba(12, 56, 148, 0.2));" data-darkreader-inline-stopcolor=""></stop></linearGradient><linearGradient x1="100%" y1="100%" x2="0%" y2="0%" id="SvgjsLinearGradient1002"><stop stop-color="rgba(15, 70, 185, 0.2)" offset="0" style="--darkreader-inline-stopcolor: var(--darkreader-background-0f46b933, rgba(12, 56, 148, 0.2));" data-darkreader-inline-stopcolor=""></stop><stop stop-opacity="0" stop-color="rgba(15, 70, 185, 0.2)" offset="0.66" style="--darkreader-inline-stopcolor: var(--darkreader-background-0f46b933, rgba(12, 56, 148, 0.2));" data-darkreader-inline-stopcolor=""></stop></linearGradient></defs></svg>