<?xml version="1.0" standalone="no"?><svg xmlns="http://www.w3.org/2000/svg" viewBox="0 0 1440 320"><path fill="#00cba9" fill-opacity="1" d="M0,288L48,277.3C96,267,192,245,288,213.3C384,181,480,139,576,144C672,149,768,203,864,229.3C960,256,1056,256,1152,213.3C1248,171,1344,85,1392,42.7L1440,0L1440,320L1392,320C1344,320,1248,320,1152,320C1056,320,960,320,864,320C768,320,672,320,576,320C480,320,384,320,288,320C192,320,96,320,48,320L0,320Z" style="--darkreader-inline-fill: var(--darkreader-background-00cba9, #00a287);" data-darkreader-inline-fill=""></path></svg>